<svg width="49" height="48" viewBox="0 0 49 48" fill="none" xmlns="http://www.w3.org/2000/svg">
<path d="M24.6666 28C29.0786 28 32.6666 24.412 32.6666 20C32.6666 15.588 29.0786 12 24.6666 12C20.2546 12 16.6666 15.588 16.6666 20C16.6666 24.412 20.2546 28 24.6666 28ZM24.6666 16C26.8726 16 28.6666 17.794 28.6666 20C28.6666 22.206 26.8726 24 24.6666 24C22.4606 24 20.6666 22.206 20.6666 20C20.6666 17.794 22.4606 16 24.6666 16Z" fill="black"/>
<path d="M23.5067 43.628C23.8452 43.8697 24.2507 43.9997 24.6667 43.9997C25.0826 43.9997 25.4882 43.8697 25.8267 43.628C26.4347 43.198 40.7247 32.88 40.6667 20C40.6667 11.178 33.4887 4 24.6667 4C15.8447 4 8.66668 11.178 8.66668 19.99C8.60868 32.88 22.8987 43.198 23.5067 43.628ZM24.6667 8C31.2847 8 36.6667 13.382 36.6667 20.01C36.7087 28.886 27.8907 36.856 24.6667 39.47C21.4447 36.854 12.6247 28.882 12.6667 20C12.6667 13.382 18.0487 8 24.6667 8Z" fill="black"/>
</svg>
