<svg width="49" height="48" viewBox="0 0 49 48" fill="none" xmlns="http://www.w3.org/2000/svg">
<path d="M35.7477 24.5859C35.5621 24.4 35.3417 24.2525 35.0991 24.1519C34.8564 24.0513 34.5963 23.9995 34.3337 23.9995C34.071 23.9995 33.8109 24.0513 33.5683 24.1519C33.3257 24.2525 33.1052 24.4 32.9197 24.5859L29.7317 27.7739C28.2537 27.3339 25.4957 26.3339 23.7477 24.5859C21.9997 22.8379 20.9997 20.0799 20.5597 18.6019L23.7477 15.4139C23.9336 15.2283 24.081 15.0079 24.1817 14.7653C24.2823 14.5227 24.3341 14.2626 24.3341 13.9999C24.3341 13.7372 24.2823 13.4772 24.1817 13.2345C24.081 12.9919 23.9336 12.7715 23.7477 12.5859L15.7477 4.58591C15.5621 4.40002 15.3417 4.25255 15.0991 4.15193C14.8564 4.0513 14.5963 3.99951 14.3337 3.99951C14.071 3.99951 13.8109 4.0513 13.5683 4.15193C13.3257 4.25255 13.1053 4.40002 12.9197 4.58591L7.49568 10.0099C6.73568 10.7699 6.30768 11.8139 6.32368 12.8799C6.36968 15.7279 7.12368 25.6199 14.9197 33.4159C22.7157 41.2119 32.6077 41.9639 35.4577 42.0119H35.5137C36.5697 42.0119 37.5677 41.5959 38.3237 40.8399L43.7477 35.4159C43.9336 35.2303 44.081 35.0099 44.1817 34.7673C44.2823 34.5247 44.3341 34.2646 44.3341 34.0019C44.3341 33.7392 44.2823 33.4792 44.1817 33.2365C44.081 32.9939 43.9336 32.7735 43.7477 32.5879L35.7477 24.5859ZM35.4937 38.0099C32.9977 37.9679 24.4577 37.2979 17.7477 30.5859C11.0157 23.8539 10.3637 15.2839 10.3237 12.8379L14.3337 8.82791L19.5057 13.9999L16.9197 16.5859C16.6846 16.8208 16.5118 17.1106 16.4168 17.4291C16.3218 17.7475 16.3077 18.0846 16.3757 18.4099C16.4237 18.6399 17.5977 24.0939 20.9177 27.4139C24.2377 30.7339 29.6917 31.9079 29.9217 31.9559C30.2468 32.0258 30.5842 32.0128 30.903 31.9181C31.2217 31.8234 31.5115 31.65 31.7457 31.4139L34.3337 28.8279L39.5057 33.9999L35.4937 38.0099Z" fill="black"/>
</svg>
