<svg width="24" height="25" viewBox="0 0 24 25" fill="none" xmlns="http://www.w3.org/2000/svg">
<path d="M12 12.1475C14.2091 12.1475 16 10.3566 16 8.14746C16 5.93832 14.2091 4.14746 12 4.14746C9.79086 4.14746 8 5.93832 8 8.14746C8 10.3566 9.79086 12.1475 12 12.1475Z" stroke="#111827" stroke-width="1.5" stroke-linecap="round" stroke-linejoin="round"/>
<path d="M22 17.4272C22 18.0286 21.7625 18.6063 21.3383 19.0336C20.3619 20.0175 19.415 21.0435 18.4021 21.9918C18.17 22.206 17.8017 22.1982 17.5795 21.9743L14.6615 19.0336C13.7795 18.1447 13.7795 16.7097 14.6615 15.8209C15.5522 14.9232 17.0032 14.9232 17.8938 15.8209L17.9999 15.9277L18.1059 15.8209C18.533 15.3903 19.1146 15.1475 19.7221 15.1475C20.3297 15.1475 20.9113 15.3903 21.3383 15.8209C21.7625 16.2482 22 16.8258 22 17.4272Z" stroke="#111827" stroke-width="1.5" stroke-linejoin="round"/>
<path d="M5 20.1475V19.1475C5 15.2815 8.13401 12.1475 12 12.1475C13.0736 12.1475 14.0907 12.3892 15 12.8211" stroke="#111827" stroke-width="1.5" stroke-linecap="round" stroke-linejoin="round"/>
</svg>
