<svg width="418" height="321" viewBox="0 0 418 321" fill="none" xmlns="http://www.w3.org/2000/svg">
<circle cx="383" cy="47" r="35" fill="#EBE5ED"/>
<circle cx="383" cy="47" r="34" stroke="#A382B2" stroke-opacity="0.5" stroke-width="2"/>
<mask id="path-3-inside-1_746_4266" fill="white">
<path fill-rule="evenodd" clip-rule="evenodd" d="M327.134 22C333.442 22 337.493 29.1853 335.907 35.2905C334.922 39.078 334.398 43.0512 334.398 47.1467C334.398 73.104 355.441 94.1467 381.398 94.1467C388.069 94.1467 394.414 92.7572 400.161 90.252C407.079 87.2367 418 91.7473 418 99.2934V312C418 316.418 414.418 320 410 320H8C3.58172 320 0 316.418 0 312V30C0 25.5817 3.58172 22 8 22H327.134Z"/>
</mask>
<path fill-rule="evenodd" clip-rule="evenodd" d="M327.134 22C333.442 22 337.493 29.1853 335.907 35.2905C334.922 39.078 334.398 43.0512 334.398 47.1467C334.398 73.104 355.441 94.1467 381.398 94.1467C388.069 94.1467 394.414 92.7572 400.161 90.252C407.079 87.2367 418 91.7473 418 99.2934V312C418 316.418 414.418 320 410 320H8C3.58172 320 0 316.418 0 312V30C0 25.5817 3.58172 22 8 22H327.134Z" fill="#EBE5ED"/>
<path d="M400.161 90.252L399.362 88.4186L400.161 90.252ZM335.907 35.2905L333.971 34.7875L335.907 35.2905ZM336.398 47.1467C336.398 43.2223 336.9 39.4182 337.842 35.7936L333.971 34.7875C332.944 38.7378 332.398 42.88 332.398 47.1467H336.398ZM381.398 92.1467C356.546 92.1467 336.398 71.9995 336.398 47.1467H332.398C332.398 74.2086 354.336 96.1467 381.398 96.1467V92.1467ZM399.362 88.4186C393.862 90.816 387.788 92.1467 381.398 92.1467V96.1467C388.349 96.1467 394.966 94.6984 400.961 92.0854L399.362 88.4186ZM416 99.2934V312H420V99.2934H416ZM410 318H8V322H410V318ZM2 312V30H-2V312H2ZM8 24H327.134V20H8V24ZM8 318C4.68629 318 2 315.314 2 312H-2C-2 317.523 2.47715 322 8 322V318ZM416 312C416 315.314 413.314 318 410 318V322C415.523 322 420 317.523 420 312H416ZM400.961 92.0854C403.779 90.8568 407.627 91.1158 410.822 92.6214C414.031 94.1334 416 96.5904 416 99.2934H420C420 94.4503 416.508 90.879 412.527 89.003C408.533 87.1206 403.461 86.6319 399.362 88.4186L400.961 92.0854ZM2 30C2 26.6863 4.68629 24 8 24V20C2.47715 20 -2 24.4772 -2 30H2ZM337.842 35.7936C338.783 32.174 338.051 28.2889 336.176 25.2942C334.289 22.2823 331.119 20 327.134 20V24C329.457 24 331.466 25.3104 332.786 27.4174C334.116 29.5417 334.617 32.3018 333.971 34.7875L337.842 35.7936Z" fill="#C6B3CF" mask="url(#path-3-inside-1_746_4266)"/>
<path d="M318.592 312.653L313.617 312.653L311.25 294.327L318.594 294.328L318.592 312.653Z" fill="#FFB6B6"/>
<path d="M318.789 317.609L303.488 317.609V317.424C303.489 314.284 306.155 311.738 309.444 311.738L312.239 309.713L317.454 311.738L318.789 311.738L318.789 317.609Z" fill="#2F2E41"/>
<path d="M296.577 312.653L291.601 312.653L289.234 294.327L296.578 294.328L296.577 312.653Z" fill="#FFB6B6"/>
<path d="M296.773 317.609L281.473 317.609V317.424C281.473 314.284 284.139 311.738 287.428 311.738L290.223 309.713L295.438 311.738L296.774 311.738L296.773 317.609Z" fill="#2F2E41"/>
<path d="M294.173 210.383L322.879 210.96C322.879 210.96 328.04 219.039 324.1 230.436L324.541 233.61L322.728 238.515L321.822 253.519L322.728 255.827L322.124 260.155C322.124 260.155 324.541 288.72 318.498 303.147L311.246 302.858L308.526 265.218L310.037 262.463L309.735 261.309L306.109 243.997L302.483 252.942V257.912L299.159 261.598C299.159 261.598 300.368 295.645 297.044 302.57H288.924L285.863 256.404L288.885 229.57L288.281 227.839L289.187 226.974L288.583 224.088L294.173 210.383Z" fill="#2F2E41"/>
<path d="M306.436 157.725L315.199 155.705L317.617 161.187C317.617 161.187 330.124 167.535 330.728 176.191C330.728 176.191 332.423 183.116 330.913 186.29C329.402 189.464 323.056 199.562 323.056 199.562C323.056 199.562 328.797 217.163 327.286 218.029C325.776 218.894 289.816 217.163 289.816 215.432C289.816 213.701 295.801 195.523 295.801 195.523L297.069 164.361L305.227 161.476L306.436 157.725Z" fill="#060606"/>
<path d="M329.782 228.753C327.947 227.871 327.21 225.736 328.134 223.984C328.227 223.808 328.336 223.645 328.454 223.491L323.578 191.568L330.329 191.775L333.86 222.878C335.14 223.915 335.564 225.686 334.776 227.18C333.852 228.931 331.616 229.636 329.782 228.753Z" fill="#FFB6B6"/>
<path d="M265.73 213.686C264.992 211.856 265.947 209.801 267.863 209.096C268.056 209.025 268.252 208.975 268.447 208.936L287.284 182.155L292.141 186.637L272.884 211.948C273.103 213.537 272.172 215.122 270.537 215.723C268.621 216.428 266.469 215.516 265.73 213.686Z" fill="#FFB6B6"/>
<path d="M317.481 183.516C315.574 177.259 318.742 170.876 325.566 170.906C327.539 170.915 329.071 171.462 329.496 172.975C330.983 178.27 331.793 186.263 331.793 186.263L333.557 194.773L332.489 196.54L334.715 202.244L333.635 204.942L333.402 218.72L327.963 218.432L321.97 207.928L319.678 206.627C319.678 206.627 321.518 189.643 317.858 184.754L317.481 183.516Z" fill="#060606"/>
<path d="M293.09 168.118C296.27 162.352 304.412 160.986 309.299 165.536C310.711 166.851 311.416 168.261 310.621 169.631C307.837 174.425 301.386 179.588 301.386 179.588L293.441 191.784L291.387 192.347L288.839 197.926L283.38 204.055L276.148 207.697L271.918 203.657L272.816 198.465L283.703 184.614C283.703 184.614 291.536 175.203 292.461 169.258L293.09 168.118Z" fill="#060606"/>
<path d="M308.066 156.038C308.266 156.061 308.466 156.078 308.664 156.087C309.282 156.119 309.892 156.085 310.48 155.99C312.267 155.717 313.89 154.909 315.142 153.724C316.466 152.474 317.372 150.805 317.617 148.905C318.191 144.42 314.847 140.335 310.151 139.787C305.522 139.244 301.302 142.336 300.628 146.717C300.618 146.785 300.607 146.85 300.599 146.918C300.026 151.405 303.367 155.487 308.066 156.038Z" fill="#FFB6B6"/>
<path d="M298.732 146.418C299.949 146.993 301.936 145.187 302.698 146.226C302.821 146.001 302.958 145.784 303.093 145.579C303.215 145.395 303.39 145.002 303.592 144.935C303.336 145.525 303.392 146.323 303.658 147.006C304.858 147.435 306.429 146.487 307.54 145.366C309.284 143.608 312.131 148.115 311.458 150.448C312.315 149.449 314.175 150.012 314.805 151.155C315.435 152.295 314.37 153.208 314.143 154.479L315.861 154.271C316.945 153.263 316.869 151.564 317.761 150.396C319.252 148.441 319.83 146.446 318.709 144.428C317.715 142.643 317.622 140.334 315.798 139.306C316.595 138.934 313.761 139.515 314.518 138.302C315.278 137.093 311.226 136.946 310.962 137.594C309.804 136.271 308.636 135.398 307.211 136.458C305.812 137.502 305.957 138.598 304.314 138.5C303.543 138.454 303.627 139.827 303.169 140.426C302.713 141.021 300.942 141.403 300.856 141.339C300.388 140.99 298.796 143.965 298.796 143.965C298.796 143.965 297.506 145.836 298.732 146.418Z" fill="#2F2E41"/>
<path d="M146.859 161.557C188.713 161.557 222.643 191.053 222.643 227.439C222.643 263.824 188.713 293.321 146.859 293.321C105.004 293.321 47.0785 257.246 71.0739 227.439C95.0693 197.632 105.004 161.557 146.859 161.557Z" fill="#A382B2"/>
<path d="M248.291 164.69C247.611 164.69 247.059 165.171 247.059 165.762V200.042C247.059 200.633 247.611 201.113 248.291 201.113C248.97 201.113 249.523 200.633 249.523 200.042V165.762C249.523 165.171 248.97 164.69 248.291 164.69Z" fill="#3F3D56"/>
<path d="M41.2674 138.98C40.5878 138.98 40.0352 139.461 40.0352 140.052V148.622C40.0352 149.213 40.5878 149.693 41.2674 149.693C41.947 149.693 42.4997 149.213 42.4997 148.622V140.052C42.4997 139.461 41.947 138.98 41.2674 138.98Z" fill="#3F3D56"/>
<path d="M41.2674 164.69C40.5878 164.69 40.0352 165.171 40.0352 165.762V182.366C40.0352 182.957 40.5878 183.437 41.2674 183.437C41.947 183.437 42.4997 182.957 42.4997 182.366V165.762C42.4997 165.171 41.947 164.69 41.2674 164.69Z" fill="#3F3D56"/>
<path d="M41.2674 188.258C40.5878 188.258 40.0352 188.738 40.0352 189.329V205.933C40.0352 206.524 40.5878 207.005 41.2674 207.005C41.947 207.005 42.4997 206.524 42.4997 205.933V189.329C42.4997 188.738 41.947 188.258 41.2674 188.258Z" fill="#3F3D56"/>
<path d="M151.787 105.236C151.107 105.236 150.555 105.717 150.555 106.308V122.912C150.555 123.503 151.107 123.983 151.787 123.983C152.467 123.983 153.019 123.503 153.019 122.912V106.308C153.019 105.717 152.467 105.236 151.787 105.236Z" fill="#3F3D56"/>
<path d="M340.569 310.716C341.842 310.786 342.545 309.411 341.582 308.609L341.486 308.278C341.499 308.252 341.512 308.225 341.524 308.199C342.812 305.531 347.174 305.549 348.451 308.221C349.583 310.593 351.026 312.969 351.381 315.477C351.54 316.584 351.468 317.712 351.186 318.798C353.84 313.757 355.237 308.253 355.237 302.718C355.237 301.327 355.15 299.937 354.97 298.549C354.823 297.415 354.62 296.287 354.358 295.169C352.937 289.129 349.861 283.376 345.424 278.57C343.291 277.557 341.512 275.972 340.437 274.073C340.051 273.388 339.749 272.651 339.605 271.9C339.848 271.928 340.521 268.714 340.338 268.517C340.676 268.071 341.281 267.849 341.651 267.413C343.488 265.248 346.02 265.626 347.342 268.569C350.165 269.808 350.192 271.862 348.46 273.838C347.358 275.095 347.206 276.796 346.239 278.141C346.339 278.252 346.442 278.359 346.542 278.47C348.366 280.504 349.944 282.691 351.274 284.988C350.898 282.435 351.453 279.359 352.4 277.377C353.477 275.118 355.496 273.216 357.274 271.263C359.409 268.917 363.788 269.941 364.165 272.914C364.168 272.943 364.172 272.972 364.175 273.001C363.911 273.13 363.652 273.268 363.4 273.413C361.958 274.242 362.456 276.184 364.164 276.413L364.203 276.419C364.108 277.245 363.944 278.065 363.706 278.871C365.986 286.539 361.062 289.332 354.031 289.458C353.876 289.527 353.725 289.596 353.57 289.662C354.282 291.405 354.851 293.194 355.273 295.007C355.651 296.608 355.914 298.228 356.061 299.854C356.244 301.905 356.228 303.967 356.029 306.015L356.041 305.942C356.546 303.687 357.955 301.58 360.001 300.12C363.048 297.944 367.353 297.143 370.64 295.393C372.223 294.551 374.25 295.639 373.974 297.234L373.961 297.311C373.471 297.484 372.994 297.684 372.532 297.909C372.268 298.039 372.009 298.176 371.757 298.322C370.315 299.15 370.813 301.093 372.521 301.322L372.56 301.327C372.588 301.331 372.612 301.334 372.64 301.338C371.8 303.071 370.63 304.68 369.166 306.067C367.739 312.761 361.614 313.396 355.062 311.446H355.058C354.342 314.159 353.295 316.809 351.95 319.334H340.847C340.807 319.227 340.772 319.116 340.736 319.009C341.762 319.064 342.797 319.012 343.808 318.85C342.984 317.971 342.16 317.085 341.337 316.207C341.317 316.189 341.301 316.172 341.285 316.155C340.867 315.705 340.445 315.259 340.027 314.809L340.027 314.809C340.001 313.428 340.192 312.052 340.569 310.716Z" fill="#A382B2"/>
<path d="M26 319.363C26 319.717 26.3266 320 26.7332 320H373.18C373.587 320 373.914 319.717 373.914 319.363C373.914 319.009 373.587 318.726 373.18 318.726H26.7332C26.3266 318.726 26 319.009 26 319.363Z" fill="#C2C2C2"/>
<path d="M113.724 222.997H71.0742V221.926H113.724C117.429 221.926 120.443 219.305 120.443 216.084V191.016H121.675V216.084C121.675 219.896 118.108 222.997 113.724 222.997Z" fill="black"/>
<path d="M195.104 277.339H98.1016V278.41H195.104V277.339Z" fill="black"/>
<path d="M256.644 215.834H204.833C202.036 215.834 199.762 213.857 199.762 211.426V166.934C199.762 164.503 202.036 162.525 204.833 162.525H256.644C259.441 162.525 261.715 164.503 261.715 166.934V211.426C261.715 213.857 259.441 215.834 256.644 215.834Z" fill="#6D3C81"/>
<path d="M214.482 163.839C207.187 163.839 201.273 168.98 201.273 175.322V210.482C201.273 212.712 203.353 214.521 205.919 214.521H237.601C250.085 214.521 260.205 205.723 260.205 194.87V167.878C260.205 165.647 258.125 163.839 255.559 163.839L214.482 163.839Z" fill="white"/>
<path d="M244.615 176.769H216.753C216.222 176.769 215.789 176.393 215.789 175.931C215.789 175.469 216.222 175.093 216.753 175.093H244.615C245.147 175.093 245.579 175.469 245.579 175.931C245.579 176.393 245.147 176.769 244.615 176.769Z" fill="#6D3C81"/>
<path d="M244.615 194.639H216.753C216.222 194.639 215.789 194.263 215.789 193.801C215.789 193.339 216.222 192.963 216.753 192.963H244.615C245.147 192.963 245.579 193.339 245.579 193.801C245.579 194.263 245.147 194.639 244.615 194.639Z" fill="#6D3C81"/>
<path d="M255.931 185.71H205.441C204.909 185.71 204.477 185.334 204.477 184.872C204.477 184.41 204.909 184.034 205.441 184.034H255.931C256.463 184.034 256.895 184.41 256.895 184.872C256.895 185.334 256.463 185.71 255.931 185.71Z" fill="#6D3C81"/>
<path d="M256.446 201.905H238.206C237.675 201.905 237.242 201.529 237.242 201.066C237.242 200.604 237.675 200.229 238.206 200.229H256.446C256.978 200.229 257.41 200.604 257.41 201.066C257.41 201.529 256.978 201.905 256.446 201.905Z" fill="#6D3C81"/>
<path d="M147.817 304.483H106.675C104.455 304.483 102.648 302.913 102.648 300.983V265.653C102.648 263.723 104.455 262.152 106.675 262.152H147.817C150.037 262.152 151.844 263.723 151.844 265.653V300.983C151.844 302.913 150.037 304.483 147.817 304.483Z" fill="#6D3C81"/>
<path d="M114.336 263.195C108.544 263.195 103.848 267.278 103.848 272.314V300.233C103.848 302.004 105.499 303.44 107.537 303.44H132.694C142.607 303.44 150.644 296.454 150.644 287.836V266.402C150.644 264.631 148.992 263.195 146.954 263.195L114.336 263.195Z" fill="white"/>
<path d="M138.265 273.463H116.141C115.718 273.463 115.375 273.164 115.375 272.797C115.375 272.43 115.718 272.132 116.141 272.132H138.265C138.687 272.132 139.03 272.43 139.03 272.797C139.03 273.164 138.687 273.463 138.265 273.463Z" fill="#6D3C81"/>
<path d="M138.265 287.653H116.141C115.718 287.653 115.375 287.355 115.375 286.988C115.375 286.621 115.718 286.322 116.141 286.322H138.265C138.687 286.322 139.03 286.621 139.03 286.988C139.03 287.355 138.687 287.653 138.265 287.653Z" fill="#6D3C81"/>
<path d="M147.249 280.562H107.156C106.734 280.562 106.391 280.264 106.391 279.897C106.391 279.53 106.734 279.231 107.156 279.231H147.249C147.671 279.231 148.014 279.53 148.014 279.897C148.014 280.264 147.671 280.562 147.249 280.562Z" fill="#6D3C81"/>
<path d="M147.659 293.423H133.176C132.754 293.423 132.41 293.124 132.41 292.757C132.41 292.39 132.754 292.092 133.176 292.092H147.659C148.081 292.092 148.425 292.39 148.425 292.757C148.425 293.124 148.081 293.423 147.659 293.423Z" fill="#6D3C81"/>
<path d="M119.061 190.746H88.6341C86.9921 190.746 85.6562 189.585 85.6562 188.157V162.029C85.6562 160.602 86.9921 159.44 88.6341 159.44H119.061C120.703 159.44 122.038 160.602 122.038 162.029V188.157C122.038 189.585 120.703 190.746 119.061 190.746Z" fill="#6D3C81"/>
<path d="M94.2999 160.212C90.0159 160.212 86.543 163.231 86.543 166.955V187.603C86.543 188.913 87.7644 189.975 89.2712 189.975H107.876C115.207 189.975 121.151 184.808 121.151 178.435V162.584C121.151 161.274 119.929 160.212 118.422 160.212L94.2999 160.212Z" fill="white"/>
<path d="M111.998 167.805H95.6365C95.3243 167.805 95.0703 167.584 95.0703 167.312C95.0703 167.041 95.3243 166.82 95.6365 166.82H111.998C112.311 166.82 112.564 167.041 112.564 167.312C112.564 167.584 112.311 167.805 111.998 167.805Z" fill="#6D3C81"/>
<path d="M111.998 178.299H95.6365C95.3243 178.299 95.0703 178.078 95.0703 177.807C95.0703 177.535 95.3243 177.314 95.6365 177.314H111.998C112.311 177.314 112.564 177.535 112.564 177.807C112.564 178.078 112.311 178.299 111.998 178.299Z" fill="#6D3C81"/>
<path d="M118.642 173.056H88.9919C88.6798 173.056 88.4258 172.835 88.4258 172.563C88.4258 172.292 88.6798 172.071 88.9919 172.071H118.642C118.954 172.071 119.208 172.292 119.208 172.563C119.208 172.835 118.954 173.056 118.642 173.056Z" fill="#6D3C81"/>
<path d="M118.942 182.566H108.23C107.918 182.566 107.664 182.345 107.664 182.074C107.664 181.803 107.918 181.582 108.23 181.582H118.942C119.254 181.582 119.508 181.803 119.508 182.074C119.508 182.345 119.254 182.566 118.942 182.566Z" fill="#6D3C81"/>
<path d="M207.857 223.689C211.259 223.689 214.018 221.291 214.018 218.333C214.018 215.375 211.259 212.977 207.857 212.977C204.454 212.977 201.695 215.375 201.695 218.333C201.695 221.291 204.454 223.689 207.857 223.689Z" fill="black"/>
<path d="M120.982 196.372C124.384 196.372 127.143 193.974 127.143 191.015C127.143 188.057 124.384 185.659 120.982 185.659C117.579 185.659 114.82 188.057 114.82 191.015C114.82 193.974 117.579 196.372 120.982 196.372Z" fill="black"/>
<path d="M150.556 269.753C153.959 269.753 156.717 267.354 156.717 264.396C156.717 261.438 153.959 259.04 150.556 259.04C147.153 259.04 144.395 261.438 144.395 264.396C144.395 267.354 147.153 269.753 150.556 269.753Z" fill="black"/>
<path d="M163.863 121.235C168.104 121.235 171.542 118.309 171.542 114.7C171.542 111.091 168.104 108.165 163.863 108.165C159.622 108.165 156.184 111.091 156.184 114.7C156.184 118.309 159.622 121.235 163.863 121.235Z" fill="#A382B2"/>
<path d="M225.421 112.464H184.087C182.669 112.464 181.516 111.462 181.516 110.229C181.516 108.996 182.669 107.993 184.087 107.993H225.421C226.839 107.993 227.992 108.996 227.992 110.229C227.992 111.462 226.839 112.464 225.421 112.464Z" fill="#A382B2"/>
<path d="M257.678 120.031H184.087C182.669 120.031 181.516 119.028 181.516 117.795C181.516 116.563 182.669 115.56 184.087 115.56H257.678C259.096 115.56 260.249 116.563 260.249 117.795C260.249 119.028 259.096 120.031 257.678 120.031Z" fill="#A382B2"/>
<path d="M52.7159 148.701C55.4606 148.701 57.6857 146.807 57.6857 144.472C57.6857 142.136 55.4606 140.242 52.7159 140.242C49.9711 140.242 47.7461 142.136 47.7461 144.472C47.7461 146.807 49.9711 148.701 52.7159 148.701Z" fill="#A382B2"/>
<path d="M92.5554 143.025H65.805C64.8873 143.025 64.1406 142.376 64.1406 141.578C64.1406 140.78 64.8873 140.131 65.805 140.131H92.5554C93.4731 140.131 94.2198 140.78 94.2198 141.578C94.2198 142.376 93.4731 143.025 92.5554 143.025Z" fill="#A382B2"/>
<path d="M113.432 147.922H65.805C64.8873 147.922 64.1406 147.273 64.1406 146.475C64.1406 145.677 64.8873 145.028 65.805 145.028H113.432C114.349 145.028 115.096 145.677 115.096 146.475C115.096 147.273 114.349 147.922 113.432 147.922Z" fill="#A382B2"/>
<path d="M201.821 299.213C204.566 299.213 206.791 297.319 206.791 294.983C206.791 292.647 204.566 290.754 201.821 290.754C199.077 290.754 196.852 292.647 196.852 294.983C196.852 297.319 199.077 299.213 201.821 299.213Z" fill="#A382B2"/>
<path d="M241.661 293.536H214.91C213.993 293.536 213.246 292.887 213.246 292.089C213.246 291.292 213.993 290.643 214.91 290.643H241.661C242.579 290.643 243.325 291.292 243.325 292.089C243.325 292.887 242.579 293.536 241.661 293.536Z" fill="#A382B2"/>
<path d="M262.537 298.434H214.91C213.993 298.434 213.246 297.785 213.246 296.987C213.246 296.189 213.993 295.54 214.91 295.54H262.537C263.455 295.54 264.201 296.189 264.201 296.987C264.201 297.785 263.455 298.434 262.537 298.434Z" fill="#A382B2"/>
<path d="M142.084 162.542H140.852V213.426H142.084V162.542Z" fill="#6D3C81"/>
<path d="M141.466 216.64C143.508 216.64 145.163 215.202 145.163 213.427C145.163 211.652 143.508 210.213 141.466 210.213C139.425 210.213 137.77 211.652 137.77 213.427C137.77 215.202 139.425 216.64 141.466 216.64Z" fill="#6D3C81"/>
<path d="M197.537 253.598C199.578 253.598 201.233 252.16 201.233 250.385C201.233 248.61 199.578 247.171 197.537 247.171C195.495 247.171 193.84 248.61 193.84 250.385C193.84 252.16 195.495 253.598 197.537 253.598Z" fill="#6D3C81"/>
<path d="M97.7203 209.677C99.7619 209.677 101.417 208.238 101.417 206.463C101.417 204.688 99.7619 203.249 97.7203 203.249C95.6786 203.249 94.0234 204.688 94.0234 206.463C94.0234 208.238 95.6786 209.677 97.7203 209.677Z" fill="#6D3C81"/>
<path d="M96.3539 206.468L76.1367 207L76.174 208.071L96.3912 207.539L96.3539 206.468Z" fill="#6D3C81"/>
<path d="M227.61 262.688H196.953V250.385H198.185V261.617H227.61V262.688Z" fill="#6D3C81"/>
<path d="M96.2046 244.768C98.2463 244.768 99.9014 243.329 99.9014 241.555C99.9014 239.78 98.2463 238.341 96.2046 238.341C94.1629 238.341 92.5078 239.78 92.5078 241.555C92.5078 243.329 94.1629 244.768 96.2046 244.768Z" fill="#6D3C81"/>
<path d="M125.914 253.858H95.2578V241.555H96.4901V252.787H125.914V253.858Z" fill="#6D3C81"/>
<path d="M219.714 229.326H72.4688V230.397H219.714V229.326Z" fill="#6D3C81"/>
<path d="M376 53L389.585 40M389.585 40V52.48M389.585 40H376.543" stroke="#C6B3CF" stroke-width="2" stroke-linecap="round" stroke-linejoin="round"/>
</svg>
